<svg width="2000" height="1622" viewBox="0 0 2000 1622" fill="none" xmlns="http://www.w3.org/2000/svg">
<rect x="202.5" y="2.5" width="195" height="195" stroke="#006CA9" stroke-width="5"/>
<rect x="602.5" y="2.5" width="195" height="195" stroke="#006CA9" stroke-width="5"/>
<rect x="402.5" y="2.5" width="195" height="195" stroke="#006CA9" stroke-width="5"/>
<rect x="1402.5" y="2.5" width="195" height="195" stroke="#006CA9" stroke-width="5"/>
<rect x="1802.5" y="2.5" width="195" height="195" stroke="#006CA9" stroke-width="5"/>
<rect x="1602.5" y="2.5" width="195" height="195" stroke="#006CA9" stroke-width="5"/>
<rect x="802.5" y="2.5" width="195" height="195" stroke="#006CA9" stroke-width="5"/>
<rect x="1202.5" y="476.5" width="195" height="195" stroke="#006CA9" stroke-width="5"/>
<rect x="1602.5" y="476.5" width="195" height="195" stroke="#006CA9" stroke-width="5"/>
<rect x="1402.5" y="476.5" width="195" height="195" fill="#006CA9" stroke="#006CA9" stroke-width="5"/>
<rect x="1802.5" y="476.5" width="195" height="195" stroke="#006CA9" stroke-width="5"/>
<rect x="202.5" y="476.5" width="195" height="195" stroke="#006CA9" stroke-width="5"/>
<rect x="1202.5" y="950.5" width="195" height="195" fill="#006CA9" stroke="#006CA9" stroke-width="5"/>
<rect x="202.5" y="950.5" width="195" height="195" fill="#006CA9" stroke="#006CA9" stroke-width="5"/>
<rect x="602.5" y="476.5" width="195" height="195" stroke="#006CA9" stroke-width="5"/>
<rect x="402.5" y="476.5" width="195" height="195" fill="#006CA9" stroke="#006CA9" stroke-width="5"/>
<rect x="802.5" y="476.5" width="195" height="195" stroke="#006CA9" stroke-width="5"/>
<rect x="1602.5" y="950.5" width="195" height="195" fill="#006CA9" stroke="#006CA9" stroke-width="5"/>
<rect x="1802.5" y="950.5" width="195" height="195" stroke="#006CA9" stroke-width="5"/>
<rect x="602.5" y="950.5" width="195" height="195" fill="#006CA9" stroke="#006CA9" stroke-width="5"/>
<rect x="802.5" y="950.5" width="195" height="195" stroke="#006CA9" stroke-width="5"/>
<rect x="1202.5" y="2.5" width="195" height="195" stroke="#006CA9" stroke-width="5"/>
<rect x="1002.5" y="2.5" width="195" height="195" fill="#006CA9" stroke="#006CA9" stroke-width="5"/>
<path d="M319.609 45.9091V155H296.544V67.8018H295.905L270.923 83.4624V63.0078L297.929 45.9091H319.609Z" fill="#FA8F00"/>
<path d="M119.609 45.9091V155H96.5443V67.8018H95.9051L70.9229 83.4624V63.0078L97.9292 45.9091H119.609Z" fill="#737370"/>
<path d="M56.361 1557.82V1539.66L101.904 1467.91H117.565V1493.05H108.296L79.5854 1538.49V1539.34H144.305V1557.82H56.361ZM108.722 1577V1552.28L109.149 1544.24V1467.91H130.775V1577H108.722Z" fill="#737370"/>
<path d="M99.727 1104.49C91.7725 1104.49 84.6879 1103.12 78.4735 1100.39C72.2945 1097.62 67.4117 1093.82 63.825 1088.99C60.2739 1084.13 58.445 1078.51 58.3385 1072.16H81.5629C81.705 1074.82 82.575 1077.17 84.173 1079.19C85.8066 1081.18 87.9727 1082.72 90.6716 1083.82C93.3705 1084.92 96.4067 1085.48 99.7803 1085.48C103.296 1085.48 106.403 1084.85 109.102 1083.61C111.801 1082.37 113.914 1080.65 115.441 1078.44C116.968 1076.24 117.731 1073.7 117.731 1070.83C117.731 1067.91 116.915 1065.34 115.281 1063.1C113.683 1060.83 111.375 1059.05 108.356 1057.78C105.373 1056.5 101.822 1055.86 97.7029 1055.86H87.5289V1038.92H97.7029C101.183 1038.92 104.255 1038.32 106.918 1037.11C109.617 1035.9 111.712 1034.23 113.204 1032.1C114.695 1029.94 115.441 1027.41 115.441 1024.54C115.441 1021.8 114.784 1019.41 113.47 1017.35C112.191 1015.25 110.38 1013.62 108.037 1012.45C105.728 1011.27 103.03 1010.69 99.9401 1010.69C96.8151 1010.69 93.9564 1011.26 91.3641 1012.39C88.7718 1013.49 86.6943 1015.07 85.1318 1017.13C83.5693 1019.19 82.7348 1021.61 82.6283 1024.38H60.5225C60.629 1018.09 62.4223 1012.55 65.9024 1007.76C69.3825 1002.96 74.07 999.218 79.9649 996.519C85.8953 993.785 92.5892 992.418 100.047 992.418C107.575 992.418 114.162 993.785 119.809 996.519C125.455 999.254 129.841 1002.95 132.966 1007.6C136.126 1012.22 137.689 1017.4 137.653 1023.15C137.689 1029.26 135.789 1034.36 131.954 1038.44C128.154 1042.52 123.2 1045.12 117.092 1046.22V1047.07C125.118 1048.1 131.226 1050.89 135.416 1055.43C139.642 1059.94 141.737 1065.59 141.701 1072.37C141.737 1078.59 139.944 1084.11 136.321 1088.94C132.735 1093.77 127.781 1097.57 121.46 1100.34C115.139 1103.11 107.895 1104.49 99.727 1104.49Z" fill="#737370"/>
<path d="M61.6011 629V612.381L100.433 576.425C103.735 573.229 106.505 570.353 108.742 567.796C111.015 565.239 112.737 562.736 113.909 560.286C115.081 557.8 115.667 555.119 115.667 552.242C115.667 549.046 114.939 546.294 113.483 543.986C112.027 541.642 110.039 539.849 107.517 538.606C104.996 537.327 102.137 536.688 98.9413 536.688C95.6032 536.688 92.6913 537.363 90.2055 538.712C87.7197 540.062 85.8021 541.997 84.4527 544.518C83.1032 547.04 82.4285 550.04 82.4285 553.521H60.5358C60.5358 546.383 62.1515 540.186 65.3831 534.93C68.6146 529.675 73.1423 525.609 78.9662 522.732C84.79 519.856 91.5017 518.418 99.1011 518.418C106.914 518.418 113.714 519.803 119.502 522.572C125.326 525.307 129.854 529.107 133.085 533.972C136.317 538.837 137.933 544.412 137.933 550.697C137.933 554.817 137.116 558.883 135.483 562.896C133.885 566.908 131.026 571.365 126.907 576.266C122.787 581.131 116.981 586.972 109.488 593.79L93.5613 609.398V610.143H139.371V629H61.6011Z" fill="#737370"/>
<path d="M1868.78 45.9091V155H1845.71V67.8018H1845.08L1820.09 83.4624V63.0078L1847.1 45.9091H1868.78ZM1893.06 135.824V117.66L1938.6 45.9091H1954.26V71.0511H1944.99L1916.28 116.488V117.34H1981V135.824H1893.06ZM1945.42 155V130.284L1945.84 122.241V45.9091H1967.47V155H1945.42Z" fill="#FA8F00"/>
<path d="M1670.17 45.9091V155H1647.11V67.8018H1646.47L1621.48 83.4624V63.0078L1648.49 45.9091H1670.17ZM1736.42 156.491C1728.47 156.491 1721.38 155.124 1715.17 152.39C1708.99 149.62 1704.11 145.82 1700.52 140.991C1696.97 136.126 1695.14 130.515 1695.03 124.158H1718.26C1718.4 126.822 1719.27 129.165 1720.87 131.19C1722.5 133.178 1724.67 134.723 1727.37 135.824C1730.06 136.925 1733.1 137.475 1736.47 137.475C1739.99 137.475 1743.1 136.854 1745.8 135.611C1748.5 134.368 1750.61 132.646 1752.14 130.444C1753.66 128.242 1754.43 125.703 1754.43 122.827C1754.43 119.915 1753.61 117.34 1751.98 115.103C1750.38 112.83 1748.07 111.055 1745.05 109.776C1742.07 108.498 1738.52 107.859 1734.4 107.859H1724.22V90.9197H1734.4C1737.88 90.9197 1740.95 90.316 1743.61 89.1087C1746.31 87.9013 1748.41 86.2322 1749.9 84.1016C1751.39 81.9354 1752.14 79.4141 1752.14 76.5376C1752.14 73.8033 1751.48 71.4062 1750.16 69.3466C1748.89 67.2514 1747.07 65.6179 1744.73 64.446C1742.42 63.2741 1739.72 62.6882 1736.63 62.6882C1733.51 62.6882 1730.65 63.2564 1728.06 64.3928C1725.47 65.4936 1723.39 67.0739 1721.83 69.1335C1720.26 71.1932 1719.43 73.608 1719.32 76.3778H1697.22C1697.32 70.0923 1699.12 64.5526 1702.6 59.7585C1706.08 54.9645 1710.76 51.218 1716.66 48.5192C1722.59 45.7848 1729.28 44.4176 1736.74 44.4176C1744.27 44.4176 1750.86 45.7848 1756.5 48.5192C1762.15 51.2535 1766.53 54.9467 1769.66 59.5987C1772.82 64.2152 1774.38 69.3999 1774.35 75.1527C1774.38 81.2607 1772.48 86.3565 1768.65 90.4403C1764.85 94.5241 1759.89 97.1165 1753.79 98.2173V99.0696C1761.81 100.099 1767.92 102.887 1772.11 107.433C1776.34 111.942 1778.43 117.589 1778.4 124.371C1778.43 130.586 1776.64 136.108 1773.02 140.938C1769.43 145.767 1764.48 149.567 1758.15 152.337C1751.83 155.107 1744.59 156.491 1736.42 156.491Z" fill="#FA8F00"/>
<path d="M1467.97 45.9091V155H1444.91V67.8018H1444.27L1419.29 83.4624V63.0078L1446.29 45.9091H1467.97ZM1536.67 157.397C1527.51 157.362 1519.63 155.107 1513.02 150.632C1506.45 146.158 1501.39 139.677 1497.84 131.19C1494.33 122.702 1492.59 112.493 1492.62 100.561C1492.62 88.6648 1494.38 78.5263 1497.9 70.1456C1501.45 61.7649 1506.51 55.3906 1513.08 51.0227C1519.68 46.6193 1527.55 44.4176 1536.67 44.4176C1545.8 44.4176 1553.65 46.6193 1560.22 51.0227C1566.82 55.4261 1571.9 61.8182 1575.45 70.1989C1579 78.544 1580.76 88.6648 1580.73 100.561C1580.73 112.528 1578.95 122.756 1575.4 131.243C1571.88 139.73 1566.84 146.211 1560.27 150.685C1553.7 155.16 1545.84 157.397 1536.67 157.397ZM1536.67 138.274C1542.92 138.274 1547.91 135.131 1551.64 128.846C1555.37 122.56 1557.22 113.132 1557.18 100.561C1557.18 92.2869 1556.33 85.3977 1554.63 79.8935C1552.96 74.3892 1550.58 70.2521 1547.49 67.4822C1544.43 64.7124 1540.83 63.3274 1536.67 63.3274C1530.46 63.3274 1525.49 66.4347 1521.76 72.6491C1518.03 78.8636 1516.15 88.1676 1516.11 100.561C1516.11 108.942 1516.95 115.938 1518.62 121.548C1520.32 127.124 1522.72 131.314 1525.81 134.119C1528.9 136.889 1532.52 138.274 1536.67 138.274Z" fill="#FA8F00"/>
<path d="M1299.95 156.491C1291.75 156.491 1284.45 155.16 1278.06 152.496C1271.7 149.798 1266.71 146.122 1263.09 141.47C1259.47 136.818 1257.66 131.545 1257.66 125.65C1257.66 121.104 1258.69 116.932 1260.75 113.132C1262.84 109.297 1265.68 106.119 1269.27 103.597C1272.86 101.04 1276.87 99.407 1281.31 98.6967V97.951C1275.49 96.7791 1270.76 93.956 1267.14 89.4815C1263.52 84.9716 1261.71 79.7337 1261.71 73.7678C1261.71 68.1214 1263.36 63.0966 1266.66 58.6932C1269.96 54.2543 1274.49 50.7741 1280.24 48.2528C1286.03 45.696 1292.6 44.4176 1299.95 44.4176C1307.3 44.4176 1313.86 45.696 1319.61 48.2528C1325.4 50.8097 1329.94 54.3075 1333.25 58.7464C1336.55 63.1499 1338.22 68.157 1338.25 73.7678C1338.22 79.7692 1336.37 85.0071 1332.71 89.4815C1329.05 93.956 1324.37 96.7791 1318.65 97.951V98.6967C1323.02 99.407 1326.98 101.04 1330.53 103.597C1334.12 106.119 1336.96 109.297 1339.05 113.132C1341.18 116.932 1342.27 121.104 1342.3 125.65C1342.27 131.545 1340.44 136.818 1336.81 141.47C1333.19 146.122 1328.18 149.798 1321.79 152.496C1315.44 155.16 1308.16 156.491 1299.95 156.491ZM1299.95 139.553C1303.61 139.553 1306.81 138.896 1309.54 137.582C1312.28 136.232 1314.41 134.386 1315.93 132.042C1317.5 129.663 1318.28 126.928 1318.28 123.839C1318.28 120.678 1317.48 117.891 1315.88 115.476C1314.28 113.026 1312.12 111.108 1309.38 109.723C1306.65 108.303 1303.5 107.592 1299.95 107.592C1296.44 107.592 1293.3 108.303 1290.53 109.723C1287.76 111.108 1285.57 113.026 1283.97 115.476C1282.41 117.891 1281.63 120.678 1281.63 123.839C1281.63 126.928 1282.39 129.663 1283.92 132.042C1285.45 134.386 1287.6 136.232 1290.37 137.582C1293.14 138.896 1296.33 139.553 1299.95 139.553ZM1299.95 90.8132C1303.01 90.8132 1305.72 90.1918 1308.1 88.9489C1310.48 87.706 1312.35 85.9837 1313.7 83.782C1315.05 81.5803 1315.72 79.0412 1315.72 76.1648C1315.72 73.3239 1315.05 70.8381 1313.7 68.7074C1312.35 66.5412 1310.5 64.8544 1308.16 63.647C1305.81 62.4041 1303.08 61.7827 1299.95 61.7827C1296.86 61.7827 1294.13 62.4041 1291.75 63.647C1289.37 64.8544 1287.51 66.5412 1286.16 68.7074C1284.84 70.8381 1284.19 73.3239 1284.19 76.1648C1284.19 79.0412 1284.86 81.5803 1286.21 83.782C1287.56 85.9837 1289.42 87.706 1291.8 88.9489C1294.18 90.1918 1296.9 90.8132 1299.95 90.8132Z" fill="#FA8F00"/>
<path d="M1868.78 519.909V629H1845.71V541.802H1845.08L1820.09 557.462V537.008L1847.1 519.909H1868.78ZM1893.06 609.824V591.66L1938.6 519.909H1954.26V545.051H1944.99L1916.28 590.488V591.34H1981V609.824H1893.06ZM1945.42 629V604.284L1945.84 596.241V519.909H1967.47V629H1945.42Z" fill="#FA8F00"/>
<path d="M1670.17 519.909V629H1647.11V541.802H1646.47L1621.48 557.462V537.008L1648.49 519.909H1670.17ZM1736.42 630.491C1728.47 630.491 1721.38 629.124 1715.17 626.39C1708.99 623.62 1704.11 619.82 1700.52 614.991C1696.97 610.126 1695.14 604.515 1695.03 598.158H1718.26C1718.4 600.822 1719.27 603.165 1720.87 605.19C1722.5 607.178 1724.67 608.723 1727.37 609.824C1730.06 610.925 1733.1 611.475 1736.47 611.475C1739.99 611.475 1743.1 610.854 1745.8 609.611C1748.5 608.368 1750.61 606.646 1752.14 604.444C1753.66 602.242 1754.43 599.703 1754.43 596.827C1754.43 593.915 1753.61 591.34 1751.98 589.103C1750.38 586.83 1748.07 585.055 1745.05 583.776C1742.07 582.498 1738.52 581.859 1734.4 581.859H1724.22V564.92H1734.4C1737.88 564.92 1740.95 564.316 1743.61 563.109C1746.31 561.901 1748.41 560.232 1749.9 558.102C1751.39 555.935 1752.14 553.414 1752.14 550.538C1752.14 547.803 1751.48 545.406 1750.16 543.347C1748.89 541.251 1747.07 539.618 1744.73 538.446C1742.42 537.274 1739.72 536.688 1736.63 536.688C1733.51 536.688 1730.65 537.256 1728.06 538.393C1725.47 539.494 1723.39 541.074 1721.83 543.134C1720.26 545.193 1719.43 547.608 1719.32 550.378H1697.22C1697.32 544.092 1699.12 538.553 1702.6 533.759C1706.08 528.964 1710.76 525.218 1716.66 522.519C1722.59 519.785 1729.28 518.418 1736.74 518.418C1744.27 518.418 1750.86 519.785 1756.5 522.519C1762.15 525.254 1766.53 528.947 1769.66 533.599C1772.82 538.215 1774.38 543.4 1774.35 549.153C1774.38 555.261 1772.48 560.357 1768.65 564.44C1764.85 568.524 1759.89 571.116 1753.79 572.217V573.07C1761.81 574.099 1767.92 576.887 1772.11 581.433C1776.34 585.942 1778.43 591.589 1778.4 598.371C1778.43 604.586 1776.64 610.108 1773.02 614.938C1769.43 619.767 1764.48 623.567 1758.15 626.337C1751.83 629.107 1744.59 630.491 1736.42 630.491Z" fill="#FA8F00"/>
<path d="M1868.78 993.909V1103H1845.71V1015.8H1845.08L1820.09 1031.46V1011.01L1847.1 993.909H1868.78ZM1893.06 1083.82V1065.66L1938.6 993.909H1954.26V1019.05H1944.99L1916.28 1064.49V1065.34H1981V1083.82H1893.06ZM1945.42 1103V1078.28L1945.84 1070.24V993.909H1967.47V1103H1945.42Z" fill="#FA8F00"/>
<rect x="1802.5" y="1424.5" width="195" height="195" fill="#006CA9" stroke="#006CA9" stroke-width="5"/>
<path d="M1868.78 1467.91V1577H1845.71V1489.8H1845.08L1820.09 1505.46V1485.01L1847.1 1467.91H1868.78ZM1893.06 1557.82V1539.66L1938.6 1467.91H1954.26V1493.05H1944.99L1916.28 1538.49V1539.34H1981V1557.82H1893.06ZM1945.42 1577V1552.28L1945.84 1544.24V1467.91H1967.47V1577H1945.42Z" fill="#FA8F00"/>
<path d="M1670.17 993.909V1103H1647.11V1015.8H1646.47L1621.48 1031.46V1011.01L1648.49 993.909H1670.17ZM1736.42 1104.49C1728.47 1104.49 1721.38 1103.12 1715.17 1100.39C1708.99 1097.62 1704.11 1093.82 1700.52 1088.99C1696.97 1084.13 1695.14 1078.51 1695.03 1072.16H1718.26C1718.4 1074.82 1719.27 1077.17 1720.87 1079.19C1722.5 1081.18 1724.67 1082.72 1727.37 1083.82C1730.06 1084.92 1733.1 1085.48 1736.47 1085.48C1739.99 1085.48 1743.1 1084.85 1745.8 1083.61C1748.5 1082.37 1750.61 1080.65 1752.14 1078.44C1753.66 1076.24 1754.43 1073.7 1754.43 1070.83C1754.43 1067.91 1753.61 1065.34 1751.98 1063.1C1750.38 1060.83 1748.07 1059.05 1745.05 1057.78C1742.07 1056.5 1738.52 1055.86 1734.4 1055.86H1724.22V1038.92H1734.4C1737.88 1038.92 1740.95 1038.32 1743.61 1037.11C1746.31 1035.9 1748.41 1034.23 1749.9 1032.1C1751.39 1029.94 1752.14 1027.41 1752.14 1024.54C1752.14 1021.8 1751.48 1019.41 1750.16 1017.35C1748.89 1015.25 1747.07 1013.62 1744.73 1012.45C1742.42 1011.27 1739.72 1010.69 1736.63 1010.69C1733.51 1010.69 1730.65 1011.26 1728.06 1012.39C1725.47 1013.49 1723.39 1015.07 1721.83 1017.13C1720.26 1019.19 1719.43 1021.61 1719.32 1024.38H1697.22C1697.32 1018.09 1699.12 1012.55 1702.6 1007.76C1706.08 1002.96 1710.76 999.218 1716.66 996.519C1722.59 993.785 1729.28 992.418 1736.74 992.418C1744.27 992.418 1750.86 993.785 1756.5 996.519C1762.15 999.254 1766.53 1002.95 1769.66 1007.6C1772.82 1012.22 1774.38 1017.4 1774.35 1023.15C1774.38 1029.26 1772.48 1034.36 1768.65 1038.44C1764.85 1042.52 1759.89 1045.12 1753.79 1046.22V1047.07C1761.81 1048.1 1767.92 1050.89 1772.11 1055.43C1776.34 1059.94 1778.43 1065.59 1778.4 1072.37C1778.43 1078.59 1776.64 1084.11 1773.02 1088.94C1769.43 1093.77 1764.48 1097.57 1758.15 1100.34C1751.83 1103.11 1744.59 1104.49 1736.42 1104.49Z" fill="#FA8F00"/>
<path d="M1467.97 519.909V629H1444.91V541.802H1444.27L1419.29 557.462V537.008L1446.29 519.909H1467.97ZM1536.67 631.397C1527.51 631.362 1519.63 629.107 1513.02 624.632C1506.45 620.158 1501.39 613.677 1497.84 605.19C1494.33 596.702 1492.59 586.493 1492.62 574.561C1492.62 562.665 1494.38 552.526 1497.9 544.146C1501.45 535.765 1506.51 529.391 1513.08 525.023C1519.68 520.619 1527.55 518.418 1536.67 518.418C1545.8 518.418 1553.65 520.619 1560.22 525.023C1566.82 529.426 1571.9 535.818 1575.45 544.199C1579 552.544 1580.76 562.665 1580.73 574.561C1580.73 586.528 1578.95 596.756 1575.4 605.243C1571.88 613.73 1566.84 620.211 1560.27 624.685C1553.7 629.16 1545.84 631.397 1536.67 631.397ZM1536.67 612.274C1542.92 612.274 1547.91 609.131 1551.64 602.846C1555.37 596.56 1557.22 587.132 1557.18 574.561C1557.18 566.287 1556.33 559.398 1554.63 553.893C1552.96 548.389 1550.58 544.252 1547.49 541.482C1544.43 538.712 1540.83 537.327 1536.67 537.327C1530.46 537.327 1525.49 540.435 1521.76 546.649C1518.03 552.864 1516.15 562.168 1516.11 574.561C1516.11 582.942 1516.95 589.938 1518.62 595.548C1520.32 601.124 1522.72 605.314 1525.81 608.119C1528.9 610.889 1532.52 612.274 1536.67 612.274Z" fill="#FA8F00"/>
<path d="M1299.95 630.491C1291.75 630.491 1284.45 629.16 1278.06 626.496C1271.7 623.798 1266.71 620.122 1263.09 615.47C1259.47 610.818 1257.66 605.545 1257.66 599.65C1257.66 595.104 1258.69 590.932 1260.75 587.132C1262.84 583.297 1265.68 580.119 1269.27 577.597C1272.86 575.04 1276.87 573.407 1281.31 572.697V571.951C1275.49 570.779 1270.76 567.956 1267.14 563.482C1263.52 558.972 1261.71 553.734 1261.71 547.768C1261.71 542.121 1263.36 537.097 1266.66 532.693C1269.96 528.254 1274.49 524.774 1280.24 522.253C1286.03 519.696 1292.6 518.418 1299.95 518.418C1307.3 518.418 1313.86 519.696 1319.61 522.253C1325.4 524.81 1329.94 528.308 1333.25 532.746C1336.55 537.15 1338.22 542.157 1338.25 547.768C1338.22 553.769 1336.37 559.007 1332.71 563.482C1329.05 567.956 1324.37 570.779 1318.65 571.951V572.697C1323.02 573.407 1326.98 575.04 1330.53 577.597C1334.12 580.119 1336.96 583.297 1339.05 587.132C1341.18 590.932 1342.27 595.104 1342.3 599.65C1342.27 605.545 1340.44 610.818 1336.81 615.47C1333.19 620.122 1328.18 623.798 1321.79 626.496C1315.44 629.16 1308.16 630.491 1299.95 630.491ZM1299.95 613.553C1303.61 613.553 1306.81 612.896 1309.54 611.582C1312.28 610.232 1314.41 608.386 1315.93 606.042C1317.5 603.663 1318.28 600.928 1318.28 597.839C1318.28 594.678 1317.48 591.891 1315.88 589.476C1314.28 587.026 1312.12 585.108 1309.38 583.723C1306.65 582.303 1303.5 581.592 1299.95 581.592C1296.44 581.592 1293.3 582.303 1290.53 583.723C1287.76 585.108 1285.57 587.026 1283.97 589.476C1282.41 591.891 1281.63 594.678 1281.63 597.839C1281.63 600.928 1282.39 603.663 1283.92 606.042C1285.45 608.386 1287.6 610.232 1290.37 611.582C1293.14 612.896 1296.33 613.553 1299.95 613.553ZM1299.95 564.813C1303.01 564.813 1305.72 564.192 1308.1 562.949C1310.48 561.706 1312.35 559.984 1313.7 557.782C1315.05 555.58 1315.72 553.041 1315.72 550.165C1315.72 547.324 1315.05 544.838 1313.7 542.707C1312.35 540.541 1310.5 538.854 1308.16 537.647C1305.81 536.404 1303.08 535.783 1299.95 535.783C1296.86 535.783 1294.13 536.404 1291.75 537.647C1289.37 538.854 1287.51 540.541 1286.16 542.707C1284.84 544.838 1284.19 547.324 1284.19 550.165C1284.19 553.041 1284.86 555.58 1286.21 557.782C1287.56 559.984 1289.42 561.706 1291.8 562.949C1294.18 564.192 1296.9 564.813 1299.95 564.813Z" fill="#FA8F00"/>
<path d="M1299.95 1104.49C1291.75 1104.49 1284.45 1103.16 1278.06 1100.5C1271.7 1097.8 1266.71 1094.12 1263.09 1089.47C1259.47 1084.82 1257.66 1079.54 1257.66 1073.65C1257.66 1069.1 1258.69 1064.93 1260.75 1061.13C1262.84 1057.3 1265.68 1054.12 1269.27 1051.6C1272.86 1049.04 1276.87 1047.41 1281.31 1046.7V1045.95C1275.49 1044.78 1270.76 1041.96 1267.14 1037.48C1263.52 1032.97 1261.71 1027.73 1261.71 1021.77C1261.71 1016.12 1263.36 1011.1 1266.66 1006.69C1269.96 1002.25 1274.49 998.774 1280.24 996.253C1286.03 993.696 1292.6 992.418 1299.95 992.418C1307.3 992.418 1313.86 993.696 1319.61 996.253C1325.4 998.81 1329.94 1002.31 1333.25 1006.75C1336.55 1011.15 1338.22 1016.16 1338.25 1021.77C1338.22 1027.77 1336.37 1033.01 1332.71 1037.48C1329.05 1041.96 1324.37 1044.78 1318.65 1045.95V1046.7C1323.02 1047.41 1326.98 1049.04 1330.53 1051.6C1334.12 1054.12 1336.96 1057.3 1339.05 1061.13C1341.18 1064.93 1342.27 1069.1 1342.3 1073.65C1342.27 1079.54 1340.44 1084.82 1336.81 1089.47C1333.19 1094.12 1328.18 1097.8 1321.79 1100.5C1315.44 1103.16 1308.16 1104.49 1299.95 1104.49ZM1299.95 1087.55C1303.61 1087.55 1306.81 1086.9 1309.54 1085.58C1312.28 1084.23 1314.41 1082.39 1315.93 1080.04C1317.5 1077.66 1318.28 1074.93 1318.28 1071.84C1318.28 1068.68 1317.48 1065.89 1315.88 1063.48C1314.28 1061.03 1312.12 1059.11 1309.38 1057.72C1306.65 1056.3 1303.5 1055.59 1299.95 1055.59C1296.44 1055.59 1293.3 1056.3 1290.53 1057.72C1287.76 1059.11 1285.57 1061.03 1283.97 1063.48C1282.41 1065.89 1281.63 1068.68 1281.63 1071.84C1281.63 1074.93 1282.39 1077.66 1283.92 1080.04C1285.45 1082.39 1287.6 1084.23 1290.37 1085.58C1293.14 1086.9 1296.33 1087.55 1299.95 1087.55ZM1299.95 1038.81C1303.01 1038.81 1305.72 1038.19 1308.1 1036.95C1310.48 1035.71 1312.35 1033.98 1313.7 1031.78C1315.05 1029.58 1315.72 1027.04 1315.72 1024.16C1315.72 1021.32 1315.05 1018.84 1313.7 1016.71C1312.35 1014.54 1310.5 1012.85 1308.16 1011.65C1305.81 1010.4 1303.08 1009.78 1299.95 1009.78C1296.86 1009.78 1294.13 1010.4 1291.75 1011.65C1289.37 1012.85 1287.51 1014.54 1286.16 1016.71C1284.84 1018.84 1284.19 1021.32 1284.19 1024.16C1284.19 1027.04 1284.86 1029.58 1286.21 1031.78C1287.56 1033.98 1289.42 1035.71 1291.8 1036.95C1294.18 1038.19 1296.9 1038.81 1299.95 1038.81Z" fill="#FA8F00"/>
<path d="M1068.55 155L1113.78 65.5114V64.7656H1061.1V45.9091H1137.64V65.032L1092.36 155H1068.55Z" fill="#FA8F00"/>
<path d="M901.199 156.491C895.588 156.456 890.172 155.515 884.952 153.668C879.767 151.822 875.115 148.821 870.996 144.666C866.877 140.511 863.61 135.007 861.195 128.153C858.816 121.3 857.626 112.884 857.626 102.905C857.662 93.7429 858.709 85.5575 860.769 78.3487C862.864 71.1044 865.847 64.9609 869.718 59.9183C873.624 54.8757 878.294 51.0405 883.727 48.4126C889.16 45.7493 895.25 44.4176 901.998 44.4176C909.277 44.4176 915.705 45.8381 921.28 48.679C926.855 51.4844 931.33 55.3018 934.703 60.1314C938.113 64.9609 940.172 70.3764 940.882 76.3778H918.137C917.25 72.5781 915.385 69.5952 912.544 67.429C909.703 65.2628 906.188 64.1797 901.998 64.1797C894.895 64.1797 889.498 67.2692 885.804 73.4482C882.147 79.6271 880.282 88.0256 880.211 98.6435H880.957C882.591 95.4119 884.792 92.6598 887.562 90.3871C890.368 88.0788 893.546 86.321 897.097 85.1136C900.684 83.8707 904.466 83.2493 908.443 83.2493C914.906 83.2493 920.659 84.7763 925.701 87.8303C930.744 90.8487 934.721 95.0035 937.633 100.295C940.545 105.586 942.001 111.641 942.001 118.459C942.001 125.845 940.279 132.415 936.834 138.168C933.425 143.92 928.649 148.43 922.505 151.697C916.397 154.929 909.295 156.527 901.199 156.491ZM901.092 138.381C904.643 138.381 907.821 137.528 910.627 135.824C913.432 134.119 915.634 131.811 917.232 128.899C918.83 125.987 919.629 122.72 919.629 119.098C919.629 115.476 918.83 112.227 917.232 109.35C915.669 106.474 913.503 104.183 910.733 102.479C907.963 100.774 904.803 99.9219 901.252 99.9219C898.588 99.9219 896.12 100.419 893.848 101.413C891.61 102.408 889.64 103.793 887.935 105.568C886.266 107.344 884.952 109.403 883.993 111.747C883.034 114.055 882.555 116.523 882.555 119.151C882.555 122.667 883.354 125.881 884.952 128.793C886.586 131.705 888.787 134.031 891.557 135.771C894.363 137.511 897.541 138.381 901.092 138.381Z" fill="#FA8F00"/>
<path d="M656.361 135.824V117.66L701.904 45.9091H717.565V71.0511H708.296L679.585 116.488V117.34H744.305V135.824H656.361ZM708.722 155V130.284L709.149 122.241V45.9091H730.775V155H708.722Z" fill="#FA8F00"/>
<path d="M499.727 156.491C491.772 156.491 484.688 155.124 478.473 152.39C472.294 149.62 467.412 145.82 463.825 140.991C460.274 136.126 458.445 130.515 458.339 124.158H481.563C481.705 126.822 482.575 129.165 484.173 131.19C485.807 133.178 487.973 134.723 490.672 135.824C493.37 136.925 496.407 137.475 499.78 137.475C503.296 137.475 506.403 136.854 509.102 135.611C511.801 134.368 513.914 132.646 515.441 130.444C516.968 128.242 517.731 125.703 517.731 122.827C517.731 119.915 516.915 117.34 515.281 115.103C513.683 112.83 511.375 111.055 508.356 109.776C505.373 108.498 501.822 107.859 497.703 107.859H487.529V90.9197H497.703C501.183 90.9197 504.255 90.316 506.918 89.1087C509.617 87.9013 511.712 86.2322 513.204 84.1016C514.695 81.9354 515.441 79.4141 515.441 76.5376C515.441 73.8033 514.784 71.4062 513.47 69.3466C512.191 67.2514 510.38 65.6179 508.037 64.446C505.728 63.2741 503.03 62.6882 499.94 62.6882C496.815 62.6882 493.956 63.2564 491.364 64.3928C488.772 65.4936 486.694 67.0739 485.132 69.1335C483.569 71.1932 482.735 73.608 482.628 76.3778H460.522C460.629 70.0923 462.422 64.5526 465.902 59.7585C469.383 54.9645 474.07 51.218 479.965 48.5192C485.895 45.7848 492.589 44.4176 500.047 44.4176C507.575 44.4176 514.162 45.7848 519.809 48.5192C525.455 51.2535 529.841 54.9467 532.966 59.5987C536.126 64.2152 537.689 69.3999 537.653 75.1527C537.689 81.2607 535.789 86.3565 531.954 90.4403C528.154 94.5241 523.2 97.1165 517.092 98.2173V99.0696C525.118 100.099 531.226 102.887 535.416 107.433C539.642 111.942 541.737 117.589 541.701 124.371C541.737 130.586 539.944 136.108 536.321 140.938C532.735 145.767 527.781 149.567 521.46 152.337C515.139 155.107 507.895 156.491 499.727 156.491Z" fill="#FA8F00"/>
<path d="M319.609 519.909V629H296.544V541.802H295.905L270.923 557.462V537.008L297.929 519.909H319.609Z" fill="#FA8F00"/>
<path d="M319.609 993.909V1103H296.544V1015.8H295.905L270.923 1031.46V1011.01L297.929 993.909H319.609Z" fill="#FA8F00"/>
<path d="M901.199 630.491C895.588 630.456 890.172 629.515 884.952 627.668C879.767 625.822 875.115 622.821 870.996 618.666C866.877 614.511 863.61 609.007 861.195 602.153C858.816 595.3 857.626 586.884 857.626 576.905C857.662 567.743 858.709 559.558 860.769 552.349C862.864 545.104 865.847 538.961 869.718 533.918C873.624 528.876 878.294 525.04 883.727 522.413C889.16 519.749 895.25 518.418 901.998 518.418C909.277 518.418 915.705 519.838 921.28 522.679C926.855 525.484 931.33 529.302 934.703 534.131C938.113 538.961 940.172 544.376 940.882 550.378H918.137C917.25 546.578 915.385 543.595 912.544 541.429C909.703 539.263 906.188 538.18 901.998 538.18C894.895 538.18 889.498 541.269 885.804 547.448C882.147 553.627 880.282 562.026 880.211 572.643H880.957C882.591 569.412 884.792 566.66 887.562 564.387C890.368 562.079 893.546 560.321 897.097 559.114C900.684 557.871 904.466 557.249 908.443 557.249C914.906 557.249 920.659 558.776 925.701 561.83C930.744 564.849 934.721 569.004 937.633 574.295C940.545 579.586 942.001 585.641 942.001 592.459C942.001 599.845 940.279 606.415 936.834 612.168C933.425 617.92 928.649 622.43 922.505 625.697C916.397 628.929 909.295 630.527 901.199 630.491ZM901.092 612.381C904.643 612.381 907.821 611.528 910.627 609.824C913.432 608.119 915.634 605.811 917.232 602.899C918.83 599.987 919.629 596.72 919.629 593.098C919.629 589.476 918.83 586.227 917.232 583.35C915.669 580.474 913.503 578.183 910.733 576.479C907.963 574.774 904.803 573.922 901.252 573.922C898.588 573.922 896.12 574.419 893.848 575.413C891.61 576.408 889.64 577.793 887.935 579.568C886.266 581.344 884.952 583.403 883.993 585.747C883.034 588.055 882.555 590.523 882.555 593.151C882.555 596.667 883.354 599.881 884.952 602.793C886.586 605.705 888.787 608.031 891.557 609.771C894.363 611.511 897.541 612.381 901.092 612.381Z" fill="#FA8F00"/>
<path d="M656.361 609.824V591.66L701.904 519.909H717.565V545.051H708.296L679.585 590.488V591.34H744.305V609.824H656.361ZM708.722 629V604.284L709.149 596.241V519.909H730.775V629H708.722Z" fill="#FA8F00"/>
<path d="M901.199 1104.49C895.588 1104.46 890.172 1103.51 884.952 1101.67C879.767 1099.82 875.115 1096.82 870.996 1092.67C866.877 1088.51 863.61 1083.01 861.195 1076.15C858.816 1069.3 857.626 1060.88 857.626 1050.9C857.662 1041.74 858.709 1033.56 860.769 1026.35C862.864 1019.1 865.847 1012.96 869.718 1007.92C873.624 1002.88 878.294 999.04 883.727 996.413C889.16 993.749 895.25 992.418 901.998 992.418C909.277 992.418 915.705 993.838 921.28 996.679C926.855 999.484 931.33 1003.3 934.703 1008.13C938.113 1012.96 940.172 1018.38 940.882 1024.38H918.137C917.25 1020.58 915.385 1017.6 912.544 1015.43C909.703 1013.26 906.188 1012.18 901.998 1012.18C894.895 1012.18 889.498 1015.27 885.804 1021.45C882.147 1027.63 880.282 1036.03 880.211 1046.64H880.957C882.591 1043.41 884.792 1040.66 887.562 1038.39C890.368 1036.08 893.546 1034.32 897.097 1033.11C900.684 1031.87 904.466 1031.25 908.443 1031.25C914.906 1031.25 920.659 1032.78 925.701 1035.83C930.744 1038.85 934.721 1043 937.633 1048.29C940.545 1053.59 942.001 1059.64 942.001 1066.46C942.001 1073.85 940.279 1080.41 936.834 1086.17C933.425 1091.92 928.649 1096.43 922.505 1099.7C916.397 1102.93 909.295 1104.53 901.199 1104.49ZM901.092 1086.38C904.643 1086.38 907.821 1085.53 910.627 1083.82C913.432 1082.12 915.634 1079.81 917.232 1076.9C918.83 1073.99 919.629 1070.72 919.629 1067.1C919.629 1063.48 918.83 1060.23 917.232 1057.35C915.669 1054.47 913.503 1052.18 910.733 1050.48C907.963 1048.77 904.803 1047.92 901.252 1047.92C898.588 1047.92 896.12 1048.42 893.848 1049.41C891.61 1050.41 889.64 1051.79 887.935 1053.57C886.266 1055.34 884.952 1057.4 883.993 1059.75C883.034 1062.06 882.555 1064.52 882.555 1067.15C882.555 1070.67 883.354 1073.88 884.952 1076.79C886.586 1079.7 888.787 1082.03 891.557 1083.77C894.363 1085.51 897.541 1086.38 901.092 1086.38Z" fill="#FA8F00"/>
<rect x="802.5" y="1424.5" width="195" height="195" fill="#006CA9" stroke="#006CA9" stroke-width="5"/>
<path d="M901.199 1578.49C895.588 1578.46 890.172 1577.51 884.952 1575.67C879.767 1573.82 875.115 1570.82 870.996 1566.67C866.877 1562.51 863.61 1557.01 861.195 1550.15C858.816 1543.3 857.626 1534.88 857.626 1524.9C857.662 1515.74 858.709 1507.56 860.769 1500.35C862.864 1493.1 865.847 1486.96 869.718 1481.92C873.624 1476.88 878.294 1473.04 883.727 1470.41C889.16 1467.75 895.25 1466.42 901.998 1466.42C909.277 1466.42 915.705 1467.84 921.28 1470.68C926.855 1473.48 931.33 1477.3 934.703 1482.13C938.113 1486.96 940.172 1492.38 940.882 1498.38H918.137C917.25 1494.58 915.385 1491.6 912.544 1489.43C909.703 1487.26 906.188 1486.18 901.998 1486.18C894.895 1486.18 889.498 1489.27 885.804 1495.45C882.147 1501.63 880.282 1510.03 880.211 1520.64H880.957C882.591 1517.41 884.792 1514.66 887.562 1512.39C890.368 1510.08 893.546 1508.32 897.097 1507.11C900.684 1505.87 904.466 1505.25 908.443 1505.25C914.906 1505.25 920.659 1506.78 925.701 1509.83C930.744 1512.85 934.721 1517 937.633 1522.29C940.545 1527.59 942.001 1533.64 942.001 1540.46C942.001 1547.85 940.279 1554.41 936.834 1560.17C933.425 1565.92 928.649 1570.43 922.505 1573.7C916.397 1576.93 909.295 1578.53 901.199 1578.49ZM901.092 1560.38C904.643 1560.38 907.821 1559.53 910.627 1557.82C913.432 1556.12 915.634 1553.81 917.232 1550.9C918.83 1547.99 919.629 1544.72 919.629 1541.1C919.629 1537.48 918.83 1534.23 917.232 1531.35C915.669 1528.47 913.503 1526.18 910.733 1524.48C907.963 1522.77 904.803 1521.92 901.252 1521.92C898.588 1521.92 896.12 1522.42 893.848 1523.41C891.61 1524.41 889.64 1525.79 887.935 1527.57C886.266 1529.34 884.952 1531.4 883.993 1533.75C883.034 1536.06 882.555 1538.52 882.555 1541.15C882.555 1544.67 883.354 1547.88 884.952 1550.79C886.586 1553.7 888.787 1556.03 891.557 1557.77C894.363 1559.51 897.541 1560.38 901.092 1560.38Z" fill="#FA8F00"/>
<path d="M656.361 1083.82V1065.66L701.904 993.909H717.565V1019.05H708.296L679.585 1064.49V1065.34H744.305V1083.82H656.361ZM708.722 1103V1078.28L709.149 1070.24V993.909H730.775V1103H708.722Z" fill="#FA8F00"/>
<path d="M499.727 630.491C491.772 630.491 484.688 629.124 478.473 626.39C472.294 623.62 467.412 619.82 463.825 614.991C460.274 610.126 458.445 604.515 458.339 598.158H481.563C481.705 600.822 482.575 603.165 484.173 605.19C485.807 607.178 487.973 608.723 490.672 609.824C493.37 610.925 496.407 611.475 499.78 611.475C503.296 611.475 506.403 610.854 509.102 609.611C511.801 608.368 513.914 606.646 515.441 604.444C516.968 602.242 517.731 599.703 517.731 596.827C517.731 593.915 516.915 591.34 515.281 589.103C513.683 586.83 511.375 585.055 508.356 583.776C505.373 582.498 501.822 581.859 497.703 581.859H487.529V564.92H497.703C501.183 564.92 504.255 564.316 506.918 563.109C509.617 561.901 511.712 560.232 513.204 558.102C514.695 555.935 515.441 553.414 515.441 550.538C515.441 547.803 514.784 545.406 513.47 543.347C512.191 541.251 510.38 539.618 508.037 538.446C505.728 537.274 503.03 536.688 499.94 536.688C496.815 536.688 493.956 537.256 491.364 538.393C488.772 539.494 486.694 541.074 485.132 543.134C483.569 545.193 482.735 547.608 482.628 550.378H460.522C460.629 544.092 462.422 538.553 465.902 533.759C469.383 528.964 474.07 525.218 479.965 522.519C485.895 519.785 492.589 518.418 500.047 518.418C507.575 518.418 514.162 519.785 519.809 522.519C525.455 525.254 529.841 528.947 532.966 533.599C536.126 538.215 537.689 543.4 537.653 549.153C537.689 555.261 535.789 560.357 531.954 564.44C528.154 568.524 523.2 571.116 517.092 572.217V573.07C525.118 574.099 531.226 576.887 535.416 581.433C539.642 585.942 541.737 591.589 541.701 598.371C541.737 604.586 539.944 610.108 536.321 614.938C532.735 619.767 527.781 623.567 521.46 626.337C515.139 629.107 507.895 630.491 499.727 630.491Z" fill="#FA8F00"/>
<path d="M495.315 472.253C494.35 474.84 495.665 477.72 498.253 478.685L540.415 494.411C543.002 495.376 545.882 494.061 546.847 491.474C547.812 488.887 546.497 486.007 543.91 485.042L506.432 471.063L520.411 433.585C521.376 430.998 520.061 428.118 517.474 427.153C514.887 426.188 512.007 427.503 511.042 430.09L495.315 472.253ZM1100 200L1097.92 195.452L497.923 469.452L500 474L502.077 478.548L1102.08 204.548L1100 200Z" fill="#737370"/>
<path d="M295.06 948.771C295.486 951.5 298.043 953.366 300.771 952.94L345.233 945.999C347.961 945.573 349.828 943.016 349.402 940.288C348.976 937.559 346.419 935.693 343.69 936.119L304.169 942.289L297.999 902.767C297.573 900.039 295.016 898.172 292.288 898.598C289.559 899.024 287.693 901.581 288.119 904.31L295.06 948.771ZM500 674L495.961 671.052L295.961 945.052L300 948L304.039 950.948L504.039 676.948L500 674Z" fill="#737370"/>
<path d="M1295.06 948.771C1295.49 951.5 1298.04 953.366 1300.77 952.94L1345.23 945.999C1347.96 945.573 1349.83 943.016 1349.4 940.288C1348.98 937.559 1346.42 935.693 1343.69 936.119L1304.17 942.289L1298 902.767C1297.57 900.039 1295.02 898.172 1292.29 898.598C1289.56 899.024 1287.69 901.581 1288.12 904.31L1295.06 948.771ZM1500 674L1495.96 671.052L1295.96 945.052L1300 948L1304.04 950.948L1504.04 676.948L1500 674Z" fill="#737370"/>
<path d="M1699.23 952.94C1701.96 953.366 1704.51 951.5 1704.94 948.771L1711.88 904.31C1712.31 901.581 1710.44 899.024 1707.71 898.598C1704.98 898.172 1702.43 900.039 1702 902.767L1695.83 942.289L1656.31 936.119C1653.58 935.693 1651.02 937.559 1650.6 940.288C1650.17 943.016 1652.04 945.573 1654.77 945.999L1699.23 952.94ZM1500 674L1495.96 676.948L1695.96 950.948L1700 948L1704.04 945.052L1504.04 671.052L1500 674Z" fill="#737370"/>
<path d="M1899.23 1426.94C1901.96 1427.37 1904.51 1425.5 1904.94 1422.77L1911.88 1378.31C1912.31 1375.58 1910.44 1373.02 1907.71 1372.6C1904.98 1372.17 1902.43 1374.04 1902 1376.77L1895.83 1416.29L1856.31 1410.12C1853.58 1409.69 1851.02 1411.56 1850.6 1414.29C1850.17 1417.02 1852.04 1419.57 1854.77 1420L1899.23 1426.94ZM1700 1148L1695.96 1150.95L1895.96 1424.95L1900 1422L1904.04 1419.05L1704.04 1145.05L1700 1148Z" fill="#737370"/>
<path d="M899.229 1426.94C901.957 1427.37 904.514 1425.5 904.94 1422.77L911.881 1378.31C912.307 1375.58 910.441 1373.02 907.712 1372.6C904.984 1372.17 902.427 1374.04 902.001 1376.77L895.831 1416.29L856.31 1410.12C853.581 1409.69 851.024 1411.56 850.598 1414.29C850.172 1417.02 852.039 1419.57 854.767 1420L899.229 1426.94ZM700 1148L695.961 1150.95L895.961 1424.95L900 1422L904.039 1419.05L704.039 1145.05L700 1148Z" fill="#737370"/>
<path d="M699.229 952.94C701.957 953.366 704.514 951.5 704.94 948.771L711.881 904.31C712.307 901.581 710.441 899.024 707.712 898.598C704.984 898.172 702.427 900.039 702.001 902.767L695.831 942.289L656.31 936.119C653.581 935.693 651.024 937.559 650.598 940.288C650.172 943.016 652.039 945.573 654.767 945.999L699.229 952.94ZM500 674L495.961 676.948L695.961 950.948L700 948L704.039 945.052L504.039 671.052L500 674Z" fill="#737370"/>
<path d="M1500.92 478.915C1503.63 478.407 1505.42 475.796 1504.91 473.081L1496.65 428.847C1496.14 426.133 1493.53 424.344 1490.81 424.851C1488.1 425.359 1486.31 427.971 1486.82 430.685L1494.17 470.004L1454.85 477.354C1452.13 477.862 1450.34 480.474 1450.85 483.188C1451.36 485.902 1453.97 487.692 1456.69 487.184L1500.92 478.915ZM1100 200L1097.17 204.125L1497.17 478.125L1500 474L1502.83 469.875L1102.83 195.875L1100 200Z" fill="#737370"/>
<path d="M484.816 318.455L494.191 340.756L510.952 318.455H520.611L498.452 345.727L511.52 373H501.861L492.344 351.835L475.725 373H466.066L487.941 345.727L475.156 318.455H484.816ZM559.345 340.614L560.339 334.932L609.913 311.636L608.493 320.727L570.567 337.631L570.851 337.062L570.709 338.483L570.425 337.915L602.811 354.818L601.248 363.909L559.345 340.614ZM647.777 373L690.959 308.653L691.101 308.085H653.601L654.879 300.273H701.47L700.05 308.511L657.01 373H647.777Z" fill="#737370"/>
<path d="M857.3 1266.45L866.675 1288.76L883.436 1266.45H893.095L870.936 1293.73L884.004 1321H874.345L864.828 1299.84L848.209 1321H838.55L860.425 1293.73L847.641 1266.45H857.3ZM979.344 1288.61L929.77 1311.91L931.332 1302.82L969.116 1285.91L968.832 1286.48L968.974 1285.06L969.258 1285.63L937.014 1268.73L938.434 1259.64L980.338 1282.93L979.344 1288.61ZM1018.84 1306.09L1019.98 1298.84L1060.32 1248.27H1065.57L1063.73 1259.49H1060.18L1029.64 1297.7V1298.27H1072.68L1071.4 1306.09H1018.84ZM1050.52 1321L1053.36 1303.81L1053.93 1300.55L1062.59 1248.27H1070.97L1058.9 1321H1050.52Z" fill="#737370"/>
<path d="M1509.3 1266.45L1518.68 1288.76L1535.44 1266.45H1545.1L1522.94 1293.73L1536.01 1321H1526.35L1516.83 1299.84L1500.21 1321H1490.55L1512.43 1293.73L1499.64 1266.45H1509.3ZM1631.35 1288.61L1581.77 1311.91L1583.33 1302.82L1621.12 1285.91L1620.83 1286.48L1620.98 1285.06L1621.26 1285.63L1589.02 1268.73L1590.44 1259.64L1632.34 1282.93L1631.35 1288.61ZM1707.63 1248.27L1695.56 1321H1686.75L1697.26 1257.51H1696.84L1677.09 1269.3L1678.66 1260.35L1698.83 1248.27H1707.63ZM1741.33 1321.99C1736.6 1321.99 1732.49 1321.2 1729.01 1319.62C1725.55 1318.01 1722.97 1315.77 1721.27 1312.9C1719.56 1310.02 1718.96 1306.65 1719.46 1302.82H1728.26C1728.05 1305.14 1728.45 1307.15 1729.47 1308.86C1730.51 1310.56 1732.05 1311.87 1734.09 1312.8C1736.15 1313.72 1738.61 1314.18 1741.48 1314.18C1744.53 1314.18 1747.39 1313.65 1750.07 1312.58C1752.77 1311.52 1755.03 1309.98 1756.85 1307.97C1758.67 1305.93 1759.8 1303.5 1760.23 1300.69C1760.6 1298.15 1760.32 1295.91 1759.37 1293.94C1758.43 1291.98 1756.79 1290.44 1754.47 1289.32C1752.18 1288.19 1749.17 1287.62 1745.45 1287.62H1739.49L1740.76 1279.81H1746.3C1749.19 1279.81 1751.84 1279.26 1754.26 1278.17C1756.67 1277.08 1758.69 1275.56 1760.3 1273.59C1761.91 1271.6 1762.92 1269.27 1763.35 1266.6C1763.75 1264.25 1763.59 1262.22 1762.85 1260.49C1762.14 1258.74 1760.91 1257.38 1759.16 1256.4C1757.43 1255.43 1755.23 1254.95 1752.55 1254.95C1750 1254.95 1747.49 1255.41 1745.03 1256.33C1742.59 1257.23 1740.5 1258.55 1738.78 1260.28C1737.05 1261.98 1735.96 1264.04 1735.51 1266.45H1726.99C1727.72 1262.67 1729.37 1259.34 1731.92 1256.48C1734.48 1253.59 1737.59 1251.34 1741.26 1249.73C1744.96 1248.1 1748.86 1247.28 1752.98 1247.28C1757.55 1247.28 1761.31 1248.23 1764.27 1250.12C1767.26 1251.99 1769.39 1254.45 1770.67 1257.51C1771.94 1260.54 1772.3 1263.8 1771.73 1267.31C1771.09 1271.31 1769.45 1274.69 1766.79 1277.46C1764.14 1280.23 1760.91 1282.2 1757.1 1283.36V1283.78C1761.57 1284.57 1764.82 1286.62 1766.83 1289.96C1768.87 1293.28 1769.51 1297.23 1768.75 1301.82C1768.08 1305.94 1766.49 1309.52 1763.95 1312.55C1761.42 1315.55 1758.21 1317.89 1754.33 1319.54C1750.45 1321.18 1746.12 1321.99 1741.33 1321.99Z" fill="#737370"/>
<path d="M657.544 792.455L666.919 814.756L683.68 792.455H693.339L671.18 819.727L684.249 847H674.589L665.072 825.835L648.453 847H638.794L660.669 819.727L647.885 792.455H657.544ZM779.588 814.614L730.014 837.909L731.576 828.818L769.36 811.915L769.076 812.483L769.218 811.062L769.502 811.631L737.258 794.727L738.679 785.636L780.582 808.932L779.588 814.614ZM843.091 847.994C838.356 847.994 834.249 847.201 830.768 845.615C827.312 844.005 824.732 841.768 823.027 838.903C821.322 836.015 820.719 832.653 821.216 828.818H830.023C829.81 831.138 830.212 833.151 831.23 834.855C832.272 836.56 833.811 837.874 835.847 838.797C837.906 839.72 840.368 840.182 843.233 840.182C846.287 840.182 849.152 839.649 851.827 838.584C854.526 837.518 856.786 835.98 858.609 833.967C860.432 831.931 861.557 829.505 861.983 826.688C862.362 824.154 862.078 821.905 861.131 819.94C860.184 817.975 858.55 816.437 856.23 815.324C853.934 814.187 850.927 813.619 847.21 813.619H841.244L842.523 805.807H848.062C850.951 805.807 853.602 805.262 856.017 804.173C858.432 803.084 860.444 801.557 862.054 799.592C863.664 797.604 864.682 795.272 865.108 792.597C865.51 790.253 865.345 788.217 864.611 786.489C863.901 784.737 862.67 783.375 860.918 782.405C859.189 781.434 856.988 780.949 854.312 780.949C851.756 780.949 849.246 781.411 846.784 782.334C844.346 783.233 842.262 784.547 840.534 786.276C838.806 787.98 837.717 790.04 837.267 792.455H828.744C829.478 788.667 831.124 785.34 833.68 782.476C836.237 779.588 839.35 777.339 843.02 775.729C846.713 774.095 850.619 773.278 854.739 773.278C859.308 773.278 863.072 774.225 866.031 776.119C869.014 777.99 871.145 780.452 872.423 783.506C873.702 786.536 874.057 789.803 873.489 793.307C872.849 797.308 871.204 800.693 868.553 803.463C865.901 806.233 862.67 808.198 858.858 809.358V809.784C863.332 810.565 866.576 812.625 868.588 815.963C870.624 819.277 871.263 823.231 870.506 827.824C869.843 831.943 868.245 835.518 865.712 838.548C863.179 841.555 859.971 843.887 856.088 845.544C852.205 847.178 847.873 847.994 843.091 847.994Z" fill="#737370"/>
<path d="M157.544 792.455L166.919 814.756L183.68 792.455H193.339L171.18 819.727L184.249 847H174.589L165.072 825.835L148.453 847H138.794L160.669 819.727L147.885 792.455H157.544ZM232.074 814.614L233.068 808.932L282.642 785.636L281.221 794.727L243.295 811.631L243.579 811.062L243.437 812.483L243.153 811.915L275.539 828.818L273.977 837.909L232.074 814.614ZM343.091 847.994C338.356 847.994 334.249 847.201 330.768 845.615C327.312 844.005 324.732 841.768 323.027 838.903C321.322 836.015 320.719 832.653 321.216 828.818H330.023C329.81 831.138 330.212 833.151 331.23 834.855C332.272 836.56 333.811 837.874 335.847 838.797C337.906 839.72 340.368 840.182 343.233 840.182C346.287 840.182 349.152 839.649 351.827 838.584C354.526 837.518 356.786 835.98 358.609 833.967C360.432 831.931 361.557 829.505 361.983 826.688C362.362 824.154 362.078 821.905 361.131 819.94C360.184 817.975 358.55 816.437 356.23 815.324C353.934 814.187 350.927 813.619 347.21 813.619H341.244L342.523 805.807H348.062C350.951 805.807 353.602 805.262 356.017 804.173C358.432 803.084 360.444 801.557 362.054 799.592C363.664 797.604 364.682 795.272 365.108 792.597C365.51 790.253 365.345 788.217 364.611 786.489C363.901 784.737 362.67 783.375 360.918 782.405C359.189 781.434 356.988 780.949 354.312 780.949C351.756 780.949 349.246 781.411 346.784 782.334C344.346 783.233 342.262 784.547 340.534 786.276C338.806 787.98 337.717 790.04 337.267 792.455H328.744C329.478 788.667 331.124 785.34 333.68 782.476C336.237 779.588 339.35 777.339 343.02 775.729C346.713 774.095 350.619 773.278 354.739 773.278C359.308 773.278 363.072 774.225 366.031 776.119C369.014 777.99 371.145 780.452 372.423 783.506C373.702 786.536 374.057 789.803 373.489 793.307C372.849 797.308 371.204 800.693 368.553 803.463C365.901 806.233 362.67 808.198 358.858 809.358V809.784C363.332 810.565 366.576 812.625 368.588 815.963C370.624 819.277 371.263 823.231 370.506 827.824C369.843 831.943 368.245 835.518 365.712 838.548C363.179 841.555 359.971 843.887 356.088 845.544C352.205 847.178 347.873 847.994 343.091 847.994Z" fill="#737370"/>
<path d="M1106.39 792.455L1115.76 814.756L1132.52 792.455H1142.18L1120.02 819.727L1133.09 847H1123.43L1113.92 825.835L1097.3 847H1087.64L1109.51 819.727L1096.73 792.455H1106.39ZM1180.92 814.614L1181.91 808.932L1231.49 785.636L1230.06 794.727L1192.14 811.631L1192.42 811.062L1192.28 812.483L1192 811.915L1224.38 828.818L1222.82 837.909L1180.92 814.614ZM1304.72 774.273L1292.64 847H1283.84L1294.35 783.506H1293.92L1274.18 795.295L1275.74 786.347L1295.91 774.273H1304.72ZM1337.14 847.994C1331.79 847.994 1327.48 846.538 1324.21 843.626C1320.95 840.691 1318.79 836.441 1317.75 830.878C1316.71 825.291 1316.83 818.544 1318.11 810.636C1319.38 802.777 1321.48 796.065 1324.39 790.501C1327.3 784.914 1330.89 780.653 1335.15 777.717C1339.41 774.758 1344.2 773.278 1349.5 773.278C1354.8 773.278 1359.1 774.758 1362.39 777.717C1365.7 780.677 1367.91 784.938 1368.99 790.501C1370.11 796.065 1370 802.777 1368.67 810.636C1367.35 818.544 1365.23 825.279 1362.32 830.842C1359.41 836.406 1355.82 840.655 1351.56 843.591C1347.3 846.527 1342.49 847.994 1337.14 847.994ZM1338.42 840.182C1343.75 840.182 1348.3 837.625 1352.09 832.511C1355.9 827.374 1358.59 820.082 1360.15 810.636C1361.19 804.339 1361.41 798.977 1360.79 794.55C1360.18 790.123 1358.8 786.749 1356.67 784.429C1354.54 782.109 1351.72 780.949 1348.22 780.949C1342.96 780.949 1338.44 783.541 1334.65 788.726C1330.87 793.887 1328.19 801.19 1326.63 810.636C1325.59 816.934 1325.36 822.284 1325.95 826.688C1326.55 831.091 1327.9 834.441 1330 836.737C1332.11 839.034 1334.92 840.182 1338.42 840.182Z" fill="#737370"/>
<path d="M1661.39 792.455L1670.76 814.756L1687.52 792.455H1697.18L1675.02 819.727L1688.09 847H1678.43L1668.92 825.835L1652.3 847H1642.64L1664.51 819.727L1651.73 792.455H1661.39ZM1783.43 814.614L1733.86 837.909L1735.42 828.818L1773.2 811.915L1772.92 812.483L1773.06 811.062L1773.35 811.631L1741.1 794.727L1742.52 785.636L1784.43 808.932L1783.43 814.614ZM1859.72 774.273L1847.64 847H1838.84L1849.35 783.506H1848.92L1829.18 795.295L1830.74 786.347L1850.91 774.273H1859.72ZM1892.14 847.994C1886.79 847.994 1882.48 846.538 1879.21 843.626C1875.95 840.691 1873.79 836.441 1872.75 830.878C1871.71 825.291 1871.83 818.544 1873.11 810.636C1874.38 802.777 1876.48 796.065 1879.39 790.501C1882.3 784.914 1885.89 780.653 1890.15 777.717C1894.41 774.758 1899.2 773.278 1904.5 773.278C1909.8 773.278 1914.1 774.758 1917.39 777.717C1920.7 780.677 1922.91 784.938 1923.99 790.501C1925.11 796.065 1925 802.777 1923.67 810.636C1922.35 818.544 1920.23 825.279 1917.32 830.842C1914.41 836.406 1910.82 840.655 1906.56 843.591C1902.3 846.527 1897.49 847.994 1892.14 847.994ZM1893.42 840.182C1898.75 840.182 1903.3 837.625 1907.09 832.511C1910.9 827.374 1913.59 820.082 1915.15 810.636C1916.19 804.339 1916.41 798.977 1915.79 794.55C1915.18 790.123 1913.8 786.749 1911.67 784.429C1909.54 782.109 1906.72 780.949 1903.22 780.949C1897.96 780.949 1893.44 783.541 1889.65 788.726C1885.87 793.887 1883.19 801.19 1881.63 810.636C1880.59 816.934 1880.36 822.284 1880.95 826.688C1881.55 831.091 1882.9 834.441 1885 836.737C1887.11 839.034 1889.92 840.182 1893.42 840.182Z" fill="#737370"/>
<path d="M1442.82 318.455L1452.19 340.756L1468.95 318.455H1478.61L1456.45 345.727L1469.52 373H1459.86L1450.34 351.835L1433.72 373H1424.07L1445.94 345.727L1433.16 318.455H1442.82ZM1564.86 340.614L1515.29 363.909L1516.85 354.818L1554.63 337.915L1554.35 338.483L1554.49 337.062L1554.77 337.631L1522.53 320.727L1523.95 311.636L1565.85 334.932L1564.86 340.614ZM1605.78 373L1648.96 308.653L1649.1 308.085H1611.6L1612.88 300.273H1659.47L1658.05 308.511L1615.01 373H1605.78Z" fill="#737370"/>
</svg>
